<mxfile host="app.diagrams.net" modified="2020-10-25T08:44:09.436Z" agent="5.0 (Windows NT 10.0; Win64; x64) AppleWebKit/537.36 (KHTML, like Gecko) Chrome/86.0.4240.111 Safari/537.36 Edg/86.0.622.51" etag="kn0fULFyiTacdxHr3KT9" version="13.8.2" type="github">
  <diagram name="Page-1" id="55a83fd1-7818-8e21-69c5-c3457e3827bb">
    <mxGraphModel dx="1447" dy="820" grid="1" gridSize="10" guides="1" tooltips="1" connect="1" arrows="1" fold="1" page="1" pageScale="1" pageWidth="1100" pageHeight="850" background="#ffffff" math="0" shadow="0">
      <root>
        <mxCell id="0" />
        <mxCell id="1" parent="0" />
        <mxCell id="tmSESLknqCdW8lLQChCC-75" value="" style="verticalLabelPosition=bottom;html=1;verticalAlign=top;align=center;shape=mxgraph.floorplan.room;fillColor=#000000;" vertex="1" parent="1">
          <mxGeometry x="100" y="100" width="810" height="1100" as="geometry" />
        </mxCell>
        <mxCell id="tmSESLknqCdW8lLQChCC-78" value="" style="verticalLabelPosition=bottom;html=1;verticalAlign=top;align=center;shape=mxgraph.floorplan.wall;fillColor=#000000;direction=south;" vertex="1" parent="1">
          <mxGeometry x="500" y="100" width="10" height="500" as="geometry" />
        </mxCell>
        <mxCell id="tmSESLknqCdW8lLQChCC-79" value="" style="verticalLabelPosition=bottom;html=1;verticalAlign=top;align=center;shape=mxgraph.floorplan.wall;fillColor=#000000;" vertex="1" parent="1">
          <mxGeometry x="240" y="595" width="270" height="10" as="geometry" />
        </mxCell>
        <mxCell id="tmSESLknqCdW8lLQChCC-80" value="" style="verticalLabelPosition=bottom;html=1;verticalAlign=top;align=center;shape=mxgraph.floorplan.wall;fillColor=#000000;" vertex="1" parent="1">
          <mxGeometry x="110" y="575" width="50" height="50" as="geometry" />
        </mxCell>
        <mxCell id="tmSESLknqCdW8lLQChCC-81" value="" style="verticalLabelPosition=bottom;html=1;verticalAlign=top;align=center;shape=mxgraph.floorplan.doorRight;aspect=fixed;rotation=-180;" vertex="1" parent="1">
          <mxGeometry x="160" y="520" width="80" height="85" as="geometry" />
        </mxCell>
        <mxCell id="tmSESLknqCdW8lLQChCC-91" value="" style="verticalLabelPosition=bottom;html=1;verticalAlign=top;align=center;shape=mxgraph.floorplan.wall;fillColor=#000000;" vertex="1" parent="1">
          <mxGeometry x="630" y="595" width="270" height="10" as="geometry" />
        </mxCell>
        <mxCell id="tmSESLknqCdW8lLQChCC-92" value="" style="verticalLabelPosition=bottom;html=1;verticalAlign=top;align=center;shape=mxgraph.floorplan.wall;fillColor=#000000;" vertex="1" parent="1">
          <mxGeometry x="500" y="575" width="50" height="50" as="geometry" />
        </mxCell>
        <mxCell id="tmSESLknqCdW8lLQChCC-93" value="" style="verticalLabelPosition=bottom;html=1;verticalAlign=top;align=center;shape=mxgraph.floorplan.doorRight;aspect=fixed;rotation=-180;" vertex="1" parent="1">
          <mxGeometry x="550" y="520" width="80" height="85" as="geometry" />
        </mxCell>
        <mxCell id="tmSESLknqCdW8lLQChCC-94" value="" style="verticalLabelPosition=bottom;html=1;verticalAlign=top;align=center;shape=mxgraph.floorplan.wall;fillColor=#000000;" vertex="1" parent="1">
          <mxGeometry x="400" y="800" width="500" height="10" as="geometry" />
        </mxCell>
        <mxCell id="tmSESLknqCdW8lLQChCC-95" value="" style="verticalLabelPosition=bottom;html=1;verticalAlign=top;align=center;shape=mxgraph.floorplan.wall;fillColor=#000000;direction=south;" vertex="1" parent="1">
          <mxGeometry x="400" y="800" width="10" height="400" as="geometry" />
        </mxCell>
        <mxCell id="tmSESLknqCdW8lLQChCC-96" value="" style="verticalLabelPosition=bottom;html=1;verticalAlign=top;align=center;shape=mxgraph.floorplan.doorDouble;aspect=fixed;rotation=-180;" vertex="1" parent="1">
          <mxGeometry x="140" y="1110" width="160" height="85" as="geometry" />
        </mxCell>
        <mxCell id="tmSESLknqCdW8lLQChCC-97" value="" style="verticalLabelPosition=bottom;html=1;verticalAlign=top;align=center;shape=mxgraph.floorplan.doorDouble;aspect=fixed;rotation=-90;" vertex="1" parent="1">
          <mxGeometry x="375.38" y="1055.63" width="120" height="63.75" as="geometry" />
        </mxCell>
        <mxCell id="tmSESLknqCdW8lLQChCC-98" value="" style="verticalLabelPosition=bottom;html=1;verticalAlign=top;align=center;shape=mxgraph.floorplan.stairs;rotation=-180;" vertex="1" parent="1">
          <mxGeometry x="400" y="670" width="500" height="130" as="geometry" />
        </mxCell>
        <mxCell id="tmSESLknqCdW8lLQChCC-101" value="" style="rounded=0;whiteSpace=wrap;html=1;" vertex="1" parent="1">
          <mxGeometry x="770" y="980" width="120" height="60" as="geometry" />
        </mxCell>
        <mxCell id="tmSESLknqCdW8lLQChCC-102" value="" style="rounded=0;whiteSpace=wrap;html=1;" vertex="1" parent="1">
          <mxGeometry x="770" y="1100" width="120" height="60" as="geometry" />
        </mxCell>
        <mxCell id="tmSESLknqCdW8lLQChCC-105" value="" style="rounded=0;whiteSpace=wrap;html=1;" vertex="1" parent="1">
          <mxGeometry x="770" y="850" width="120" height="60" as="geometry" />
        </mxCell>
        <mxCell id="tmSESLknqCdW8lLQChCC-106" value="" style="rounded=0;whiteSpace=wrap;html=1;" vertex="1" parent="1">
          <mxGeometry x="430" y="850" width="120" height="60" as="geometry" />
        </mxCell>
        <mxCell id="tmSESLknqCdW8lLQChCC-107" value="" style="rounded=0;whiteSpace=wrap;html=1;" vertex="1" parent="1">
          <mxGeometry x="610" y="850" width="120" height="60" as="geometry" />
        </mxCell>
        <mxCell id="tmSESLknqCdW8lLQChCC-110" value="&lt;font style=&quot;font-size: 24px&quot;&gt;nhÃ  kho&lt;/font&gt;" style="text;html=1;strokeColor=none;fillColor=none;align=center;verticalAlign=middle;whiteSpace=wrap;rounded=0;" vertex="1" parent="1">
          <mxGeometry x="520" y="990" width="210" height="90" as="geometry" />
        </mxCell>
        <mxCell id="tmSESLknqCdW8lLQChCC-163" value="" style="group" vertex="1" connectable="0" parent="1">
          <mxGeometry x="140" y="140" width="113" height="110" as="geometry" />
        </mxCell>
        <mxCell id="tmSESLknqCdW8lLQChCC-149" value="" style="verticalLabelPosition=bottom;html=1;verticalAlign=top;align=center;shape=mxgraph.floorplan.office_chair;shadow=0;direction=north;" vertex="1" parent="tmSESLknqCdW8lLQChCC-163">
          <mxGeometry y="60" width="43" height="40" as="geometry" />
        </mxCell>
        <mxCell id="tmSESLknqCdW8lLQChCC-150" value="" style="verticalLabelPosition=bottom;html=1;verticalAlign=top;align=center;shape=mxgraph.floorplan.office_chair;shadow=0;direction=south;" vertex="1" parent="tmSESLknqCdW8lLQChCC-163">
          <mxGeometry x="70" y="60" width="43" height="40" as="geometry" />
        </mxCell>
        <mxCell id="tmSESLknqCdW8lLQChCC-143" value="" style="verticalLabelPosition=bottom;html=1;verticalAlign=top;align=center;shape=mxgraph.floorplan.office_chair;shadow=0;direction=north;" vertex="1" parent="tmSESLknqCdW8lLQChCC-163">
          <mxGeometry y="10" width="43" height="40" as="geometry" />
        </mxCell>
        <mxCell id="tmSESLknqCdW8lLQChCC-144" value="" style="verticalLabelPosition=bottom;html=1;verticalAlign=top;align=center;shape=mxgraph.floorplan.office_chair;shadow=0;direction=south;" vertex="1" parent="tmSESLknqCdW8lLQChCC-163">
          <mxGeometry x="70" y="10" width="43" height="40" as="geometry" />
        </mxCell>
        <mxCell id="tmSESLknqCdW8lLQChCC-147" value="" style="shape=rect;shadow=0;direction=south;" vertex="1" parent="tmSESLknqCdW8lLQChCC-163">
          <mxGeometry x="20" width="70" height="110" as="geometry" />
        </mxCell>
        <mxCell id="tmSESLknqCdW8lLQChCC-182" value="" style="fontColor=#0066CC;verticalAlign=top;verticalLabelPosition=bottom;labelPosition=center;align=center;html=1;outlineConnect=0;fillColor=#CCCCCC;strokeColor=#6881B3;gradientColor=none;gradientDirection=north;strokeWidth=2;shape=mxgraph.networks.pc;rotation=-180;direction=south;" vertex="1" parent="tmSESLknqCdW8lLQChCC-163">
          <mxGeometry x="60" y="20" width="20" height="20" as="geometry" />
        </mxCell>
        <mxCell id="tmSESLknqCdW8lLQChCC-183" value="" style="fontColor=#0066CC;verticalAlign=top;verticalLabelPosition=bottom;labelPosition=center;align=center;html=1;outlineConnect=0;fillColor=#CCCCCC;strokeColor=#6881B3;gradientColor=none;gradientDirection=north;strokeWidth=2;shape=mxgraph.networks.pc;rotation=-180;direction=south;" vertex="1" parent="tmSESLknqCdW8lLQChCC-163">
          <mxGeometry x="60" y="70" width="20" height="20" as="geometry" />
        </mxCell>
        <mxCell id="tmSESLknqCdW8lLQChCC-184" value="" style="fontColor=#0066CC;verticalAlign=top;verticalLabelPosition=bottom;labelPosition=center;align=center;html=1;outlineConnect=0;fillColor=#CCCCCC;strokeColor=#6881B3;gradientColor=none;gradientDirection=north;strokeWidth=2;shape=mxgraph.networks.pc;rotation=0;direction=south;" vertex="1" parent="tmSESLknqCdW8lLQChCC-163">
          <mxGeometry x="30" y="70" width="20" height="20" as="geometry" />
        </mxCell>
        <mxCell id="tmSESLknqCdW8lLQChCC-185" value="" style="fontColor=#0066CC;verticalAlign=top;verticalLabelPosition=bottom;labelPosition=center;align=center;html=1;outlineConnect=0;fillColor=#CCCCCC;strokeColor=#6881B3;gradientColor=none;gradientDirection=north;strokeWidth=2;shape=mxgraph.networks.pc;rotation=0;direction=south;" vertex="1" parent="tmSESLknqCdW8lLQChCC-163">
          <mxGeometry x="30" y="20" width="20" height="20" as="geometry" />
        </mxCell>
        <mxCell id="tmSESLknqCdW8lLQChCC-187" value="" style="group" vertex="1" connectable="0" parent="1">
          <mxGeometry x="140" y="370" width="113" height="110" as="geometry" />
        </mxCell>
        <mxCell id="tmSESLknqCdW8lLQChCC-188" value="" style="verticalLabelPosition=bottom;html=1;verticalAlign=top;align=center;shape=mxgraph.floorplan.office_chair;shadow=0;direction=north;" vertex="1" parent="tmSESLknqCdW8lLQChCC-187">
          <mxGeometry y="60" width="43" height="40" as="geometry" />
        </mxCell>
        <mxCell id="tmSESLknqCdW8lLQChCC-189" value="" style="verticalLabelPosition=bottom;html=1;verticalAlign=top;align=center;shape=mxgraph.floorplan.office_chair;shadow=0;direction=south;" vertex="1" parent="tmSESLknqCdW8lLQChCC-187">
          <mxGeometry x="70" y="60" width="43" height="40" as="geometry" />
        </mxCell>
        <mxCell id="tmSESLknqCdW8lLQChCC-190" value="" style="verticalLabelPosition=bottom;html=1;verticalAlign=top;align=center;shape=mxgraph.floorplan.office_chair;shadow=0;direction=north;" vertex="1" parent="tmSESLknqCdW8lLQChCC-187">
          <mxGeometry y="10" width="43" height="40" as="geometry" />
        </mxCell>
        <mxCell id="tmSESLknqCdW8lLQChCC-191" value="" style="verticalLabelPosition=bottom;html=1;verticalAlign=top;align=center;shape=mxgraph.floorplan.office_chair;shadow=0;direction=south;" vertex="1" parent="tmSESLknqCdW8lLQChCC-187">
          <mxGeometry x="70" y="10" width="43" height="40" as="geometry" />
        </mxCell>
        <mxCell id="tmSESLknqCdW8lLQChCC-192" value="" style="shape=rect;shadow=0;direction=south;" vertex="1" parent="tmSESLknqCdW8lLQChCC-187">
          <mxGeometry x="20" width="70" height="110" as="geometry" />
        </mxCell>
        <mxCell id="tmSESLknqCdW8lLQChCC-193" value="" style="fontColor=#0066CC;verticalAlign=top;verticalLabelPosition=bottom;labelPosition=center;align=center;html=1;outlineConnect=0;fillColor=#CCCCCC;strokeColor=#6881B3;gradientColor=none;gradientDirection=north;strokeWidth=2;shape=mxgraph.networks.pc;rotation=-180;direction=south;" vertex="1" parent="tmSESLknqCdW8lLQChCC-187">
          <mxGeometry x="60" y="20" width="20" height="20" as="geometry" />
        </mxCell>
        <mxCell id="tmSESLknqCdW8lLQChCC-194" value="" style="fontColor=#0066CC;verticalAlign=top;verticalLabelPosition=bottom;labelPosition=center;align=center;html=1;outlineConnect=0;fillColor=#CCCCCC;strokeColor=#6881B3;gradientColor=none;gradientDirection=north;strokeWidth=2;shape=mxgraph.networks.pc;rotation=-180;direction=south;" vertex="1" parent="tmSESLknqCdW8lLQChCC-187">
          <mxGeometry x="60" y="70" width="20" height="20" as="geometry" />
        </mxCell>
        <mxCell id="tmSESLknqCdW8lLQChCC-195" value="" style="fontColor=#0066CC;verticalAlign=top;verticalLabelPosition=bottom;labelPosition=center;align=center;html=1;outlineConnect=0;fillColor=#CCCCCC;strokeColor=#6881B3;gradientColor=none;gradientDirection=north;strokeWidth=2;shape=mxgraph.networks.pc;rotation=0;direction=south;" vertex="1" parent="tmSESLknqCdW8lLQChCC-187">
          <mxGeometry x="30" y="70" width="20" height="20" as="geometry" />
        </mxCell>
        <mxCell id="tmSESLknqCdW8lLQChCC-196" value="" style="fontColor=#0066CC;verticalAlign=top;verticalLabelPosition=bottom;labelPosition=center;align=center;html=1;outlineConnect=0;fillColor=#CCCCCC;strokeColor=#6881B3;gradientColor=none;gradientDirection=north;strokeWidth=2;shape=mxgraph.networks.pc;rotation=0;direction=south;" vertex="1" parent="tmSESLknqCdW8lLQChCC-187">
          <mxGeometry x="30" y="20" width="20" height="20" as="geometry" />
        </mxCell>
        <mxCell id="tmSESLknqCdW8lLQChCC-197" value="" style="group" vertex="1" connectable="0" parent="1">
          <mxGeometry x="340" y="140" width="113" height="110" as="geometry" />
        </mxCell>
        <mxCell id="tmSESLknqCdW8lLQChCC-198" value="" style="verticalLabelPosition=bottom;html=1;verticalAlign=top;align=center;shape=mxgraph.floorplan.office_chair;shadow=0;direction=north;" vertex="1" parent="tmSESLknqCdW8lLQChCC-197">
          <mxGeometry y="60" width="43" height="40" as="geometry" />
        </mxCell>
        <mxCell id="tmSESLknqCdW8lLQChCC-199" value="" style="verticalLabelPosition=bottom;html=1;verticalAlign=top;align=center;shape=mxgraph.floorplan.office_chair;shadow=0;direction=south;" vertex="1" parent="tmSESLknqCdW8lLQChCC-197">
          <mxGeometry x="70" y="60" width="43" height="40" as="geometry" />
        </mxCell>
        <mxCell id="tmSESLknqCdW8lLQChCC-200" value="" style="verticalLabelPosition=bottom;html=1;verticalAlign=top;align=center;shape=mxgraph.floorplan.office_chair;shadow=0;direction=north;" vertex="1" parent="tmSESLknqCdW8lLQChCC-197">
          <mxGeometry y="10" width="43" height="40" as="geometry" />
        </mxCell>
        <mxCell id="tmSESLknqCdW8lLQChCC-201" value="" style="verticalLabelPosition=bottom;html=1;verticalAlign=top;align=center;shape=mxgraph.floorplan.office_chair;shadow=0;direction=south;" vertex="1" parent="tmSESLknqCdW8lLQChCC-197">
          <mxGeometry x="70" y="10" width="43" height="40" as="geometry" />
        </mxCell>
        <mxCell id="tmSESLknqCdW8lLQChCC-202" value="" style="shape=rect;shadow=0;direction=south;" vertex="1" parent="tmSESLknqCdW8lLQChCC-197">
          <mxGeometry x="20" width="70" height="110" as="geometry" />
        </mxCell>
        <mxCell id="tmSESLknqCdW8lLQChCC-203" value="" style="fontColor=#0066CC;verticalAlign=top;verticalLabelPosition=bottom;labelPosition=center;align=center;html=1;outlineConnect=0;fillColor=#CCCCCC;strokeColor=#6881B3;gradientColor=none;gradientDirection=north;strokeWidth=2;shape=mxgraph.networks.pc;rotation=-180;direction=south;" vertex="1" parent="tmSESLknqCdW8lLQChCC-197">
          <mxGeometry x="60" y="20" width="20" height="20" as="geometry" />
        </mxCell>
        <mxCell id="tmSESLknqCdW8lLQChCC-204" value="" style="fontColor=#0066CC;verticalAlign=top;verticalLabelPosition=bottom;labelPosition=center;align=center;html=1;outlineConnect=0;fillColor=#CCCCCC;strokeColor=#6881B3;gradientColor=none;gradientDirection=north;strokeWidth=2;shape=mxgraph.networks.pc;rotation=-180;direction=south;" vertex="1" parent="tmSESLknqCdW8lLQChCC-197">
          <mxGeometry x="60" y="70" width="20" height="20" as="geometry" />
        </mxCell>
        <mxCell id="tmSESLknqCdW8lLQChCC-205" value="" style="fontColor=#0066CC;verticalAlign=top;verticalLabelPosition=bottom;labelPosition=center;align=center;html=1;outlineConnect=0;fillColor=#CCCCCC;strokeColor=#6881B3;gradientColor=none;gradientDirection=north;strokeWidth=2;shape=mxgraph.networks.pc;rotation=0;direction=south;" vertex="1" parent="tmSESLknqCdW8lLQChCC-197">
          <mxGeometry x="30" y="70" width="20" height="20" as="geometry" />
        </mxCell>
        <mxCell id="tmSESLknqCdW8lLQChCC-206" value="" style="fontColor=#0066CC;verticalAlign=top;verticalLabelPosition=bottom;labelPosition=center;align=center;html=1;outlineConnect=0;fillColor=#CCCCCC;strokeColor=#6881B3;gradientColor=none;gradientDirection=north;strokeWidth=2;shape=mxgraph.networks.pc;rotation=0;direction=south;" vertex="1" parent="tmSESLknqCdW8lLQChCC-197">
          <mxGeometry x="30" y="20" width="20" height="20" as="geometry" />
        </mxCell>
        <mxCell id="tmSESLknqCdW8lLQChCC-207" value="" style="group" vertex="1" connectable="0" parent="1">
          <mxGeometry x="340" y="370" width="113" height="180" as="geometry" />
        </mxCell>
        <mxCell id="tmSESLknqCdW8lLQChCC-208" value="" style="verticalLabelPosition=bottom;html=1;verticalAlign=top;align=center;shape=mxgraph.floorplan.office_chair;shadow=0;direction=north;" vertex="1" parent="tmSESLknqCdW8lLQChCC-207">
          <mxGeometry y="60" width="43" height="40" as="geometry" />
        </mxCell>
        <mxCell id="tmSESLknqCdW8lLQChCC-209" value="" style="verticalLabelPosition=bottom;html=1;verticalAlign=top;align=center;shape=mxgraph.floorplan.office_chair;shadow=0;direction=south;" vertex="1" parent="tmSESLknqCdW8lLQChCC-207">
          <mxGeometry x="70" y="60" width="43" height="40" as="geometry" />
        </mxCell>
        <mxCell id="tmSESLknqCdW8lLQChCC-210" value="" style="verticalLabelPosition=bottom;html=1;verticalAlign=top;align=center;shape=mxgraph.floorplan.office_chair;shadow=0;direction=north;" vertex="1" parent="tmSESLknqCdW8lLQChCC-207">
          <mxGeometry y="10" width="43" height="40" as="geometry" />
        </mxCell>
        <mxCell id="tmSESLknqCdW8lLQChCC-211" value="" style="verticalLabelPosition=bottom;html=1;verticalAlign=top;align=center;shape=mxgraph.floorplan.office_chair;shadow=0;direction=south;" vertex="1" parent="tmSESLknqCdW8lLQChCC-207">
          <mxGeometry x="70" y="10" width="43" height="40" as="geometry" />
        </mxCell>
        <mxCell id="tmSESLknqCdW8lLQChCC-212" value="" style="shape=rect;shadow=0;direction=south;" vertex="1" parent="tmSESLknqCdW8lLQChCC-207">
          <mxGeometry x="20" width="70" height="110" as="geometry" />
        </mxCell>
        <mxCell id="tmSESLknqCdW8lLQChCC-213" value="" style="fontColor=#0066CC;verticalAlign=top;verticalLabelPosition=bottom;labelPosition=center;align=center;html=1;outlineConnect=0;fillColor=#CCCCCC;strokeColor=#6881B3;gradientColor=none;gradientDirection=north;strokeWidth=2;shape=mxgraph.networks.pc;rotation=-180;direction=south;" vertex="1" parent="tmSESLknqCdW8lLQChCC-207">
          <mxGeometry x="60" y="20" width="20" height="20" as="geometry" />
        </mxCell>
        <mxCell id="tmSESLknqCdW8lLQChCC-214" value="" style="fontColor=#0066CC;verticalAlign=top;verticalLabelPosition=bottom;labelPosition=center;align=center;html=1;outlineConnect=0;fillColor=#CCCCCC;strokeColor=#6881B3;gradientColor=none;gradientDirection=north;strokeWidth=2;shape=mxgraph.networks.pc;rotation=-180;direction=south;" vertex="1" parent="tmSESLknqCdW8lLQChCC-207">
          <mxGeometry x="60" y="70" width="20" height="20" as="geometry" />
        </mxCell>
        <mxCell id="tmSESLknqCdW8lLQChCC-215" value="" style="fontColor=#0066CC;verticalAlign=top;verticalLabelPosition=bottom;labelPosition=center;align=center;html=1;outlineConnect=0;fillColor=#CCCCCC;strokeColor=#6881B3;gradientColor=none;gradientDirection=north;strokeWidth=2;shape=mxgraph.networks.pc;rotation=0;direction=south;" vertex="1" parent="tmSESLknqCdW8lLQChCC-207">
          <mxGeometry x="30" y="70" width="20" height="20" as="geometry" />
        </mxCell>
        <mxCell id="tmSESLknqCdW8lLQChCC-216" value="" style="fontColor=#0066CC;verticalAlign=top;verticalLabelPosition=bottom;labelPosition=center;align=center;html=1;outlineConnect=0;fillColor=#CCCCCC;strokeColor=#6881B3;gradientColor=none;gradientDirection=north;strokeWidth=2;shape=mxgraph.networks.pc;rotation=0;direction=south;" vertex="1" parent="tmSESLknqCdW8lLQChCC-207">
          <mxGeometry x="30" y="20" width="20" height="20" as="geometry" />
        </mxCell>
        <mxCell id="tmSESLknqCdW8lLQChCC-218" value="&lt;font style=&quot;font-size: 24px&quot;&gt;PhÃ²ng ká»¹ thuáº­t&lt;/font&gt;" style="text;html=1;strokeColor=none;fillColor=none;align=center;verticalAlign=middle;whiteSpace=wrap;rounded=0;" vertex="1" parent="1">
          <mxGeometry x="190" y="260" width="210" height="90" as="geometry" />
        </mxCell>
        <mxCell id="tmSESLknqCdW8lLQChCC-222" value="" style="aspect=fixed;perimeter=ellipsePerimeter;html=1;align=center;shadow=0;dashed=0;spacingTop=3;image;image=img/lib/active_directory/web_server.svg;" vertex="1" parent="1">
          <mxGeometry x="590" y="240" width="96" height="120" as="geometry" />
        </mxCell>
        <mxCell id="tmSESLknqCdW8lLQChCC-227" value="" style="aspect=fixed;perimeter=ellipsePerimeter;html=1;align=center;shadow=0;dashed=0;spacingTop=3;image;image=img/lib/active_directory/windows_server_2.svg;" vertex="1" parent="1">
          <mxGeometry x="750" y="240" width="88" height="110" as="geometry" />
        </mxCell>
        <mxCell id="tmSESLknqCdW8lLQChCC-228" value="&lt;font style=&quot;font-size: 24px&quot;&gt;PhÃ²ng Server&lt;/font&gt;" style="text;html=1;strokeColor=none;fillColor=none;align=center;verticalAlign=middle;whiteSpace=wrap;rounded=0;" vertex="1" parent="1">
          <mxGeometry x="580" y="380" width="210" height="90" as="geometry" />
        </mxCell>
      </root>
    </mxGraphModel>
  </diagram>
</mxfile>
